# xmcd CD database file
#
# Track frame offsets:
#	150
#	15457
#	30455
#	45737
#	59387
#	72797
#	87387
#	101695
#	115727
#	130960
#	145542
#	158212
#	170760
#	185150
#	198520
#	210717
#	224302
#	235687
#	248882
#	261370
#	271722
#	283510
#	295500
#	306715
#
# Disc length: 4244 seconds
#
# Revision: 0
# Processed by: cddbd v1.4PL0 Copyright (c) Steve Scherf et al.
# Submitted via: CDex 1.50beta9
#
DISCID=67109218
DTITLE=Paul Brunelle - Les grands du country
DYEAR=1900
DGENRE=Country
TTITLE0=Je suis un cowboy chantant
TTITLE1=Dites-moi bonjour
TTITLE2=Le train qui siffle
TTITLE3=Il n'est jamais trop tard
TTITLE4=Ma belle poupée d'amour
TTITLE5=Suzanne
TTITLE6=Quand je valse avec toi
TTITLE7=Tout au fond de mon coeur
TTITLE8=Oh! qu'elle est belle ma vallée
TTITLE9=La tyrolienne de mon pays
TTITLE10=Ma belle Lola
TTITLE11=Mon cheval est mort
TTITLE12=Viens je t'attends
TTITLE13=Aux sons des guitares
TTITLE14=Bonjour mes amis
TTITLE15=Le cowboy des montagnes
TTITLE16=Je suis fier de mes montagnes
TTITLE17=Ma petite maison
TTITLE18=La marche des cavaliers
TTITLE19=La petite au bonnet bleu
TTITLE20=Tu m'dis pas
TTITLE21=La chanson du prisonnier (The Prisoner's Song)
TTITLE22=Je suis perdu loin de toi
TTITLE23=Adieu Hawaii
EXTD=
EXTT0=
EXTT1=
EXTT2=
EXTT3=
EXTT4=
EXTT5=
EXTT6=
EXTT7=
EXTT8=
EXTT9=
EXTT10=
EXTT11=
EXTT12=
EXTT13=
EXTT14=
EXTT15=
EXTT16=
EXTT17=
EXTT18=
EXTT19=
EXTT20=
EXTT21=
EXTT22=
EXTT23=
PLAYORDER=
